<?xml version="1.0" encoding="UTF-8" standalone="no"?>
<svg
   xmlns:dc="http://purl.org/dc/elements/1.1/"
   xmlns:cc="http://creativecommons.org/ns#"
   xmlns:rdf="http://www.w3.org/1999/02/22-rdf-syntax-ns#"
   xmlns:svg="http://www.w3.org/2000/svg"
   xmlns="http://www.w3.org/2000/svg"
   version="1.1"
   id="svg6225"
   viewBox="0 0 114 50.000001"
   height="50"
   width="114">
  <defs
     id="defs6227" />
  <metadata
     id="metadata6230">
    <rdf:RDF>
      <cc:Work
         rdf:about="">
        <dc:format>image/svg+xml</dc:format>
        <dc:type
           rdf:resource="http://purl.org/dc/dcmitype/StillImage" />
        <dc:title></dc:title>
      </cc:Work>
    </rdf:RDF>
  </metadata>
  <g
     transform="translate(0,-1002.3622)"
     id="layer1">
    <g
       id="text6777"
       style="font-style:normal;font-variant:normal;font-weight:normal;font-stretch:normal;font-size:46.10796356px;line-height:125%;font-family:Fly;-inkscape-font-specification:'Fly, Normal';text-align:start;letter-spacing:0px;word-spacing:0px;writing-mode:lr-tb;text-anchor:start;fill:#ffffff;fill-opacity:1;stroke:none;stroke-width:1px;stroke-linecap:butt;stroke-linejoin:miter;stroke-opacity:1">
      <path
         id="path8292"
         style=""
         d="m 11.907081,1011.1861 -1.328306,4.6153 15.174203,0 -23.0990089,27.7368 22.9188999,0 1.350819,-4.6153 -14.949066,0 23.099009,-27.7368 -23.16655,0 z" />
      <path
         id="path8294"
         style=""
         d="m 47.928927,1020.5743 -1.373333,4.5928 -4.772894,0 q -0.945574,0 -1.823606,0.6754 -0.878033,0.6754 -1.17071,1.621 l -2.724153,9.163 q -0.292677,0.9456 0.18011,1.621 0.472786,0.6754 1.41836,0.6754 l 3.669725,0 q 0.945574,0 1.823606,-0.6754 0.878033,-0.6754 1.148197,-1.621 l 2.746666,-9.163 q 0.04503,-0.1126 0.06754,-0.2477 l 2.003715,-6.6415 2.746666,0 q 0.945573,0 1.41836,0.6754 0.472787,0.6754 0.202623,1.621 l -5.515846,18.3711 q -0.292677,0.9456 -1.17071,1.621 -0.878032,0.6754 -1.823606,0.6754 l -13.755842,0 q -0.945574,0 -1.41836,-0.6754 -0.472787,-0.6754 -0.18011,-1.621 l 5.493332,-18.3711 q 0.292677,-0.9456 1.17071,-1.621 0.878032,-0.6754 1.823606,-0.6754 l 9.815953,0 z" />
      <path
         id="path8296"
         style=""
         d="m 68.731543,1020.5743 -1.373333,4.5928 -4.772894,0 q -0.945574,0 -1.823606,0.6754 -0.878033,0.6754 -1.17071,1.621 l -2.724152,9.163 q -0.292678,0.9456 0.180109,1.621 0.472787,0.6754 1.41836,0.6754 l 3.669726,0 q 0.945573,0 1.823606,-0.6754 0.878032,-0.6754 1.148196,-1.621 l 2.746666,-9.163 q 0.04503,-0.1126 0.06754,-0.2477 l 2.003715,-6.6415 2.746666,0 q 0.945573,0 1.41836,0.6754 0.472787,0.6754 0.202623,1.621 l -5.515845,18.3711 q -0.292678,0.9456 -1.17071,1.621 -0.878033,0.6754 -1.823606,0.6754 l -13.755843,0 q -0.945574,0 -1.41836,-0.6754 -0.472787,-0.6754 -0.18011,-1.621 l 5.493332,-18.3711 q 0.292678,-0.9456 1.17071,-1.621 0.878033,-0.6754 1.823606,-0.6754 l 9.815953,0 z" />
      <path
         id="path8298"
         style=""
         d="m 85.84192,1043.5382 4.975518,-16.0747 q 0.292677,-0.9456 -0.202623,-1.621 -0.495301,-0.6979 -1.485901,-0.6979 l -5.043059,0 1.440874,-4.6153 10.378794,0 q 0.990601,0 1.485902,0.6754 0.4953,0.6754 0.202623,1.6209 l -6.393878,20.7126 -5.35825,0 z m -1.260765,-23.0089 -7.136828,23.0089 -5.35825,0 7.091801,-23.0089 5.403277,0 z m 14.904039,23.0089 4.975516,-16.0747 q 0.29268,-0.9456 -0.20262,-1.621 -0.4953,-0.6979 -1.4859,-0.6979 l -5.020547,0 1.41836,-4.6153 10.378797,0 q 0.9906,0 1.4859,0.6754 0.4953,0.6754 0.20262,1.6209 l -6.39388,20.7126 -5.358246,0 z" />
    </g>
  </g>
</svg>
