<?xml version="1.0" encoding="UTF-8" standalone="no"?>
<svg
   xmlns:dc="http://purl.org/dc/elements/1.1/"
   xmlns:cc="http://creativecommons.org/ns#"
   xmlns:rdf="http://www.w3.org/1999/02/22-rdf-syntax-ns#"
   xmlns:svg="http://www.w3.org/2000/svg"
   xmlns="http://www.w3.org/2000/svg"
   version="1.1"
   id="svg2"
   viewBox="0 0 234 102"
   height="102"
   width="234">
  <defs
     id="defs4" />
  <metadata
     id="metadata7">
    <rdf:RDF>
      <cc:Work
         rdf:about="">
        <dc:format>image/svg+xml</dc:format>
        <dc:type
           rdf:resource="http://purl.org/dc/dcmitype/StillImage" />
        <dc:title></dc:title>
      </cc:Work>
    </rdf:RDF>
  </metadata>
  <g
     transform="translate(0,-950.36216)"
     id="layer1">
    <g
       id="flowRoot4136"
       style="font-style:normal;font-weight:normal;font-size:44.85738373px;line-height:125%;font-family:sans-serif;letter-spacing:0px;word-spacing:0px;fill:#005c94;fill-opacity:1;stroke:none;stroke-width:1px;stroke-linecap:butt;stroke-linejoin:miter;stroke-opacity:1"
       transform="translate(5.6267064,-9.5059292)">
      <path
         id="path4225"
         style="font-style:normal;font-variant:normal;font-weight:normal;font-stretch:normal;font-size:93.92014313px;line-height:125%;font-family:Fly;-inkscape-font-specification:'Fly, Normal';text-align:start;writing-mode:lr-tb;text-anchor:start;fill:#005c94"
         d="m 20.002283,987.41098 -2.797427,9.40119 20.957767,0 -32.3309089,37.51303 37.5588849,0 2.843286,-9.4471 -21.049485,0 32.330908,-37.46712 -37.513025,0 z" />
      <path
         id="path4227"
         style="font-style:normal;font-variant:normal;font-weight:normal;font-stretch:normal;font-size:93.92014313px;line-height:125%;font-family:Fly;-inkscape-font-specification:'Fly, Normal';text-align:start;writing-mode:lr-tb;text-anchor:start;fill:#005c94"
         d="m 87.736684,987.54856 -2.797426,9.35533 -9.722203,0 q -1.926096,0 -3.714615,1.37578 -1.788518,1.37578 -2.384691,3.30193 l -5.548993,18.6647 q -0.596173,1.9261 0.366876,3.3019 0.963048,1.3758 2.889145,1.3758 l 7.475089,0 q 1.926097,0 3.714615,-1.3758 1.788519,-1.3758 2.338832,-3.3019 l 5.594852,-18.6647 q 0.09172,-0.2293 0.137579,-0.5045 l 4.08149,-13.52854 5.594853,0 q 1.926096,0 2.889145,1.37578 0.963048,1.37579 0.412735,3.30188 l -11.235564,37.42128 q -0.596173,1.9261 -2.384692,3.3019 -1.788518,1.3758 -3.714615,1.3758 l -28.02012,0 q -1.926097,0 -2.889145,-1.3758 -0.963049,-1.3758 -0.366876,-3.3019 L 61.64266,992.22622 q 0.596172,-1.92609 2.384691,-3.30188 1.788518,-1.37578 3.714615,-1.37578 l 19.994718,0 z" />
      <path
         id="path4229"
         style="font-style:normal;font-variant:normal;font-weight:normal;font-stretch:normal;font-size:93.92014313px;line-height:125%;font-family:Fly;-inkscape-font-specification:'Fly, Normal';text-align:start;writing-mode:lr-tb;text-anchor:start;fill:#005c94"
         d="m 130.11081,987.54856 -2.79743,9.35533 -9.7222,0 q -1.9261,0 -3.71461,1.37578 -1.78852,1.37578 -2.38469,3.30193 l -5.549,18.6647 q -0.59617,1.9261 0.36688,3.3019 0.96305,1.3758 2.88914,1.3758 l 7.47509,0 q 1.9261,0 3.71462,-1.3758 1.78852,-1.3758 2.33883,-3.3019 l 5.59485,-18.6647 q 0.0917,-0.2293 0.13758,-0.5045 l 4.08149,-13.52854 5.59485,0 q 1.9261,0 2.88915,1.37578 0.96305,1.37579 0.41273,3.30188 l -11.23556,37.42128 q -0.59617,1.9261 -2.38469,3.3019 -1.78852,1.3758 -3.71462,1.3758 l -28.020118,0 q -1.926097,0 -2.889145,-1.3758 -0.963048,-1.3758 -0.366876,-3.3019 l 11.189709,-37.42128 q 0.59617,-1.92609 2.38469,-3.30188 1.78852,-1.37578 3.71461,-1.37578 l 19.99472,0 z" />
      <path
         id="path4231"
         style="font-style:normal;font-variant:normal;font-weight:normal;font-stretch:normal;font-size:93.92014313px;line-height:125%;font-family:Fly;-inkscape-font-specification:'Fly, Normal';text-align:start;writing-mode:lr-tb;text-anchor:start;fill:#005c94"
         d="m 164.96398,1034.3252 10.13494,-32.7436 q 0.59617,-1.92615 -0.41273,-3.30193 -1.00891,-1.42164 -3.02673,-1.42164 l -10.27251,0 2.935,-9.40119 21.14121,0 q 2.01781,0 3.02672,1.37579 1.00891,1.37578 0.41273,3.30188 l -13.02408,42.19069 -10.91455,0 z m -2.56813,-46.86836 -14.53744,46.86836 -10.91455,0 14.44573,-46.86836 11.00626,0 z m 30.35896,46.86836 10.13493,-32.7436 q 0.59618,-1.92615 -0.41273,-3.30193 -1.00891,-1.42164 -3.02672,-1.42164 l -10.22666,0 2.88915,-9.40119 21.1412,0 q 2.01781,0 3.02672,1.37579 1.00891,1.37578 0.41274,3.30188 l -13.02408,42.19069 -10.91455,0 z" />
    </g>
  </g>
</svg>
