<?xml version="1.0" encoding="UTF-8" standalone="no"?>
<svg
   xmlns:dc="http://purl.org/dc/elements/1.1/"
   xmlns:cc="http://creativecommons.org/ns#"
   xmlns:rdf="http://www.w3.org/1999/02/22-rdf-syntax-ns#"
   xmlns:svg="http://www.w3.org/2000/svg"
   xmlns="http://www.w3.org/2000/svg"
   version="1.1"
   id="svg2"
   viewBox="0 0 150 0"
   height="0"
   width="150">
  <defs
     id="defs4" />
  <metadata
     id="metadata7">
    <rdf:RDF>
      <cc:Work
         rdf:about="">
        <dc:format>image/svg+xml</dc:format>
        <dc:type
           rdf:resource="http://purl.org/dc/dcmitype/StillImage" />
        <dc:title></dc:title>
      </cc:Work>
    </rdf:RDF>
  </metadata>
  <g
     transform="translate(0,-1052.3622)"
     id="layer1">
    <g
       id="flowRoot4136"
       style="font-style:normal;font-weight:normal;font-size:40px;line-height:125%;font-family:sans-serif;letter-spacing:0px;word-spacing:0px;fill:#000000;fill-opacity:1;stroke:none;stroke-width:1px;stroke-linecap:butt;stroke-linejoin:miter;stroke-opacity:1;image-rendering:optimizeQuality"
       transform="translate(2.7720424,1065.7601)">
      <path
         id="path4206"
         d="m 109.75977,57.651876 c 2.1582,-6.972656 4.31641,-13.945313 6.47461,-20.917969 0.68548,-4.016994 -4.15414,-2.847684 -6.62445,-3.017578 -2.88812,0.804639 -1.79615,-1.317695 -1.1678,-3.099085 0.35553,-1.967033 0.93892,-3.624239 3.26864,-2.906774 4.08599,0.123949 8.22118,-0.262062 12.27263,0.219727 2.4647,1.867815 0.0628,4.897072 -0.32358,7.280784 -2.30913,7.480298 -4.61827,14.960597 -6.9274,22.440895 -2.32422,0 -4.64843,0 -6.97265,0 z M 108.11914,27.71047 c -3.0957,9.980469 -6.19141,19.960937 -9.287109,29.941406 -2.324219,0 -4.648437,0 -6.972656,0 3.076172,-9.980469 6.152343,-19.960937 9.228515,-29.941406 2.34375,0 4.6875,0 7.03125,0 z m 19.39453,29.941406 c 2.1582,-6.972656 4.31641,-13.945313 6.47461,-20.917969 0.6855,-4.016993 -4.15413,-2.847684 -6.62444,-3.017578 -2.88514,0.81341 -1.74954,-1.343864 -1.15231,-3.10336 0.34397,-1.969636 0.92382,-3.620012 3.25315,-2.902499 4.08599,0.123949 8.22117,-0.262063 12.27263,0.219727 2.4647,1.867812 0.0628,4.897072 -0.32358,7.280784 -2.30913,7.480298 -4.61827,14.960597 -6.9274,22.440895 -2.32422,0 -4.64844,0 -6.97266,0 z M 87.494141,27.769064 c -0.595703,1.992187 -1.191407,3.984375 -1.78711,5.976562 -3.206556,0.357057 -7.230359,-1.123462 -9.536132,1.845703 -1.757832,4.194151 -2.694529,8.731852 -4.116212,13.066407 -0.736707,3.997093 4.0707,2.813544 6.507263,2.988281 3.888672,0.194104 4.555547,-4.086331 5.401834,-6.946324 1.694048,-5.643753 3.372723,-11.291775 5.08309,-16.930629 2.451941,-0.170157 7.032314,-0.311418 5.513848,3.553639 -2.433229,7.971792 -4.722495,15.993963 -7.246026,23.934154 -1.922753,3.566807 -6.300119,2.082938 -9.561359,2.395019 -4.352431,-0.12884 -8.758048,0.268918 -13.074139,-0.219726 -2.351289,-1.913777 -0.01615,-4.903613 0.349464,-7.292946 2.029247,-6.652068 3.912915,-13.35499 6.033593,-19.975121 1.922753,-3.566807 6.300119,-2.082938 9.561359,-2.395019 2.290176,0 4.580351,0 6.870527,0 z m -27.070313,0 c -0.595703,1.992187 -1.191406,3.984375 -1.787109,5.976562 -3.206556,0.357057 -7.23036,-1.123462 -9.536133,1.845703 -1.757831,4.194151 -2.694528,8.731852 -4.116211,13.066407 -0.736707,3.997093 4.070699,2.813544 6.507262,2.988281 3.888672,0.194105 4.555547,-4.086331 5.401834,-6.946324 1.694049,-5.643753 3.372724,-11.291775 5.08309,-16.930629 2.451941,-0.170157 7.032315,-0.311419 5.513848,3.553639 -2.433229,7.971792 -4.722494,15.993963 -7.246025,23.934154 -1.922754,3.566807 -6.30012,2.082938 -9.56136,2.395019 -4.352431,-0.12884 -8.758048,0.268918 -13.074138,-0.219726 -2.351289,-1.913777 -0.01615,-4.903613 0.349463,-7.292946 2.029248,-6.652068 3.912915,-13.35499 6.033593,-19.975121 1.922754,-3.566807 6.30012,-2.082938 9.56136,-2.395019 2.290176,0 4.580351,0 6.870526,0 z m -46.875,-12.216797 c -0.576172,2.001953 -1.152343,4.003906 -1.728515,6.005859 6.582031,0 13.164062,0 19.746093,0 -10.019531,12.03125 -20.039062,24.0625 -30.0585935,36.09375 9.9414065,0 19.8828125,0 29.8242185,0 0.585938,-2.001953 1.171875,-4.003906 1.757813,-6.005859 -6.484375,0 -12.96875,0 -19.453125,0 10.019531,-12.03125 20.039062,-24.0625 30.058593,-36.09375 -10.048828,0 -20.097656,0 -30.146484,0 z"
         style="font-style:normal;font-variant:normal;font-weight:normal;font-stretch:normal;font-size:60px;line-height:125%;font-family:Fly;-inkscape-font-specification:'Fly, Normal';text-align:start;writing-mode:lr-tb;text-anchor:start;fill:#005c94" />
    </g>
  </g>
</svg>
